<?xml version="1.0" encoding="utf-8"?>
<!-- Generator: Adobe Illustrator 21.0.2, SVG Export Plug-In . SVG Version: 6.00 Build 0)  -->
<svg version="1.1"
	 id="Layer_1" xmlns:cc="http://creativecommons.org/ns#" xmlns:dc="http://purl.org/dc/elements/1.1/" xmlns:inkscape="http://www.inkscape.org/namespaces/inkscape" xmlns:rdf="http://www.w3.org/1999/02/22-rdf-syntax-ns#" xmlns:sodipodi="http://sodipodi.sourceforge.net/DTD/sodipodi-0.dtd" xmlns:svg="http://www.w3.org/2000/svg"
	 xmlns="http://www.w3.org/2000/svg" xmlns:xlink="http://www.w3.org/1999/xlink" x="0px" y="0px" viewBox="0 0 38 28"
	 style="enable-background:new 0 0 38 28;" xml:space="preserve">
<style type="text/css">
	.st0{fill:#FFFFFF;}
	.st1{fill:#1B2A3F;}
</style>
<g transform="translate(0,-1004.3622)">
	<g>
		<g>
			<path class="st0" d="M29,1008.3c-1.1,0-1.9-0.6-2.5-1.1c-0.7-0.6-1.2-0.9-1.5-0.9s-0.8,0.3-1.5,0.8s-1.4,1.2-2.5,1.2
				s-1.9-0.6-2.5-1.1c-0.7-0.6-1.2-0.9-1.5-0.9s-0.8,0.3-1.5,0.8c-0.7,0.5-1.4,1.2-2.5,1.2s-1.9-0.6-2.5-1.1l-0.2-0.1
				c-0.7-0.5-1-0.7-1.4-0.7s-0.8,0.3-1.5,0.8s-1.4,1.2-2.5,1.2s-2-0.5-2.9-1l-0.2-0.1c-0.8-0.6-1.5-1.1-1.5-1.1
				c-0.2-0.2-0.3-0.4-0.3-0.7c0-0.4,0.3-0.9,0.9-0.9c0.2,0,0.3,0,0.6,0.3c0,0,0.5,0.4,1.3,0.9c0.7,0.4,1.7,0.8,2.1,0.8
				c0.3,0,0.8-0.3,1.5-0.8s1.4-1.2,2.5-1.2s1.9,0.6,2.5,1.1c0.7,0.6,1.2,0.9,1.5,0.9s0.8-0.3,1.5-0.8s1.4-1.2,2.5-1.2
				c1,0,1.6,0.5,2.2,0.9c0.1,0.1,0.5,0.3,0.5,0.3c0.7,0.5,1,0.7,1.4,0.7c0.3,0,0.8-0.3,1.5-0.8s1.4-1.2,2.5-1.2s1.9,0.6,2.5,1.1
				l0.2,0.1c0.7,0.5,1,0.7,1.3,0.7s0.8-0.3,1.5-0.8s1.4-1.2,2.5-1.2s2,0.5,2.9,1l0.2,0.1c0.8,0.6,1.5,1.1,1.5,1.1
				c0.2,0.1,0.3,0.4,0.3,0.6c0,0.2-0.1,0.5-0.2,0.6c-0.2,0.2-0.4,0.3-0.7,0.3c-0.2,0-0.4-0.1-0.6-0.2c0,0-0.5-0.4-1.3-0.9
				c-0.7-0.4-1.7-0.8-2.1-0.8c-0.3,0-0.8,0.3-1.5,0.8C30.9,1007.7,30.1,1008.3,29,1008.3z"/>
			<path class="st1" d="M33,1004.7c1.1,0,2,0.5,2.8,1l0.1,0.1c0.8,0.6,1.5,1.1,1.5,1.1c0.1,0.1,0.2,0.3,0.3,0.5c0,0.1,0,0.3-0.2,0.5
				c-0.1,0.2-0.3,0.3-0.6,0.3c-0.2,0-0.3-0.1-0.5-0.2c0,0-0.5-0.4-1.3-0.9c-0.7-0.4-1.7-0.8-2.1-0.8c-0.4,0-0.9,0.3-1.6,0.9h-0.1
				c-0.6,0.5-1.3,1.1-2.4,1.1s-1.8-0.6-2.4-1.1h-0.1c-0.7-0.6-1.2-0.9-1.6-0.9s-0.9,0.3-1.6,0.9h-0.1c-0.6,0.5-1.3,1.1-2.4,1.1
				s-1.8-0.6-2.4-1.1h-0.1c-0.7-0.6-1.2-0.9-1.6-0.9s-0.9,0.3-1.6,0.9h-0.1c-0.6,0.5-1.3,1.1-2.4,1.1s-1.8-0.6-2.4-1.1l-0.1-0.1
				l-0.1-0.1c-0.7-0.5-1.1-0.8-1.4-0.8c-0.4,0-0.9,0.3-1.6,0.9H6.8c-0.6,0.5-1.3,1.1-2.4,1.1s-2-0.5-2.8-1l-0.1-0.1
				c-0.8-0.6-1.5-1.1-1.5-1.1c-0.2-0.1-0.3-0.3-0.3-0.6c0-0.4,0.3-0.8,0.8-0.8c0.2,0,0.3,0,0.5,0.2c0,0,0.5,0.4,1.3,0.9
				c0.7,0.4,1.7,0.8,2.1,0.8s0.9-0.3,1.6-0.9h0.1c0.6-0.5,1.3-1.1,2.4-1.1s1.8,0.6,2.4,1.1H11c0.7,0.6,1.2,0.9,1.6,0.9
				s0.9-0.3,1.6-0.9h0.1c0.6-0.5,1.3-1.1,2.4-1.1c0.9,0,1.5,0.5,2.1,0.9c0.1,0.1,0.2,0.2,0.3,0.2l0.1,0.1c0.7,0.5,1.1,0.8,1.4,0.8
				c0.4,0,0.9-0.3,1.6-0.9h0.1c0.6-0.5,1.3-1.1,2.4-1.1s1.8,0.6,2.4,1.1l0.1,0.1l0.1,0.1c0.7,0.5,1.1,0.8,1.4,0.8
				c0.4,0,0.9-0.3,1.6-0.9h0.1C31.2,1005.3,31.9,1004.7,33,1004.7 M33,1004.4c-1.2,0-2,0.7-2.6,1.2s-1.1,0.8-1.4,0.8
				s-0.7-0.3-1.4-0.8c-0.6-0.5-1.4-1.2-2.6-1.2s-2,0.7-2.6,1.2s-1.1,0.8-1.4,0.8s-0.7-0.3-1.4-0.8c-0.7-0.5-1.4-1.2-2.6-1.2
				s-2,0.7-2.6,1.2s-1.1,0.8-1.4,0.8s-0.8-0.3-1.4-0.8c-0.6-0.5-1.4-1.2-2.6-1.2s-2,0.7-2.6,1.2s-1.1,0.8-1.4,0.8s-1.3-0.4-2-0.8
				c-0.8-0.5-1.3-0.9-1.3-0.9c-0.3-0.3-0.5-0.3-0.7-0.3c-0.6,0-1,0.5-1,1c0,0.3,0.1,0.6,0.4,0.8c0,0,0.7,0.5,1.5,1.1
				c0.9,0.5,1.9,1.1,3.1,1.1s2-0.7,2.6-1.2s1.1-0.8,1.4-0.8s0.7,0.3,1.4,0.8c0.6,0.5,1.4,1.2,2.6,1.2s2-0.7,2.6-1.2s1.1-0.8,1.4-0.8
				s0.8,0.3,1.4,0.8s1.4,1.2,2.6,1.2s2-0.7,2.6-1.2s1.1-0.8,1.4-0.8s0.8,0.3,1.4,0.8s1.4,1.2,2.6,1.2s2-0.7,2.6-1.2s1.1-0.8,1.4-0.8
				s1.3,0.4,2,0.8c0.8,0.5,1.3,0.9,1.3,0.9c0.2,0.2,0.4,0.3,0.6,0.3c0.3,0,0.6-0.1,0.8-0.4c0.4-0.4,0.3-1.1-0.1-1.4
				c0,0-0.7-0.5-1.5-1.1C35.2,1005,34.2,1004.4,33,1004.4L33,1004.4z"/>
		</g>
		<g>
			<path class="st0" d="M29,1014.3c-1.1,0-1.9-0.6-2.5-1.1c-0.7-0.6-1.2-0.9-1.5-0.9s-0.8,0.3-1.5,0.8s-1.4,1.2-2.5,1.2
				s-1.9-0.6-2.5-1.1c-0.7-0.6-1.2-0.9-1.5-0.9s-0.8,0.3-1.5,0.8c-0.7,0.5-1.4,1.2-2.5,1.2s-1.9-0.6-2.5-1.1l-0.2-0.1
				c-0.7-0.5-1-0.7-1.4-0.7s-0.8,0.3-1.5,0.8s-1.4,1.2-2.5,1.2s-2-0.5-2.9-1l-0.2-0.1c-0.8-0.6-1.5-1.1-1.5-1.1
				c-0.2-0.2-0.3-0.4-0.3-0.7c0-0.4,0.3-0.9,0.9-0.9c0.2,0,0.3,0,0.6,0.3c0,0,0.5,0.4,1.3,0.9c0.7,0.4,1.7,0.8,2.1,0.8
				c0.3,0,0.8-0.3,1.5-0.8s1.4-1.2,2.5-1.2s1.9,0.6,2.5,1.1c0.7,0.6,1.2,0.9,1.5,0.9s0.8-0.3,1.5-0.8s1.4-1.2,2.5-1.2
				c1,0,1.6,0.5,2.2,0.9c0.1,0.1,0.5,0.3,0.5,0.3c0.7,0.5,1,0.7,1.4,0.7c0.3,0,0.8-0.3,1.5-0.8s1.4-1.2,2.5-1.2s1.9,0.6,2.5,1.1
				l0.2,0.1c0.7,0.5,1,0.7,1.3,0.7s0.8-0.3,1.5-0.8s1.4-1.2,2.5-1.2s2,0.5,2.9,1l0.2,0.1c0.8,0.6,1.5,1.1,1.5,1.1
				c0.2,0.1,0.3,0.4,0.3,0.6c0,0.2-0.1,0.5-0.2,0.6c-0.2,0.2-0.4,0.3-0.7,0.3c-0.2,0-0.4-0.1-0.6-0.2c0,0-0.5-0.4-1.3-0.9
				c-0.7-0.4-1.7-0.8-2.1-0.8c-0.3,0-0.8,0.3-1.5,0.8C30.9,1013.7,30.1,1014.3,29,1014.3z"/>
			<path class="st1" d="M33,1010.7c1.1,0,2,0.5,2.8,1l0.1,0.1c0.8,0.6,1.5,1.1,1.5,1.1c0.1,0.1,0.2,0.3,0.3,0.5c0,0.1,0,0.3-0.2,0.5
				c-0.1,0.2-0.3,0.3-0.6,0.3c-0.2,0-0.3-0.1-0.5-0.2c0,0-0.5-0.4-1.3-0.9c-0.7-0.4-1.7-0.8-2.1-0.8c-0.4,0-0.9,0.3-1.6,0.9h-0.1
				c-0.6,0.5-1.3,1.1-2.4,1.1s-1.8-0.6-2.4-1.1h-0.1c-0.7-0.6-1.2-0.9-1.6-0.9s-0.9,0.3-1.6,0.9h-0.1c-0.6,0.5-1.3,1.1-2.4,1.1
				s-1.8-0.6-2.4-1.1h-0.1c-0.7-0.6-1.2-0.9-1.6-0.9s-0.9,0.3-1.6,0.9h-0.1c-0.6,0.5-1.3,1.1-2.4,1.1s-1.8-0.6-2.4-1.1l-0.1-0.1
				l-0.1-0.1c-0.7-0.5-1.1-0.8-1.4-0.8c-0.4,0-0.9,0.3-1.6,0.9H6.8c-0.6,0.5-1.3,1.1-2.4,1.1s-2-0.5-2.8-1l-0.1-0.1
				c-0.8-0.6-1.5-1.1-1.5-1.1c-0.2-0.1-0.3-0.3-0.3-0.6c0-0.4,0.3-0.8,0.8-0.8c0.2,0,0.3,0,0.5,0.2c0,0,0.5,0.4,1.3,0.9
				c0.7,0.4,1.7,0.8,2.1,0.8s0.9-0.3,1.6-0.9h0.1c0.6-0.5,1.3-1.1,2.4-1.1s1.8,0.6,2.4,1.1H11c0.7,0.6,1.2,0.9,1.6,0.9
				s0.9-0.3,1.6-0.9h0.1c0.6-0.5,1.3-1.1,2.4-1.1c0.9,0,1.5,0.5,2.1,0.9c0.1,0.1,0.2,0.2,0.3,0.2l0.1,0.1c0.7,0.5,1.1,0.8,1.4,0.8
				c0.4,0,0.9-0.3,1.6-0.9h0.1c0.6-0.5,1.3-1.1,2.4-1.1s1.8,0.6,2.4,1.1l0.1,0.1l0.1,0.1c0.7,0.5,1.1,0.8,1.4,0.8
				c0.4,0,0.9-0.3,1.6-0.9h0.1C31.2,1011.3,31.9,1010.7,33,1010.7 M33,1010.4c-1.2,0-2,0.7-2.6,1.2s-1.1,0.8-1.4,0.8
				s-0.7-0.3-1.4-0.8c-0.6-0.5-1.4-1.2-2.6-1.2s-2,0.7-2.6,1.2s-1.1,0.8-1.4,0.8s-0.7-0.3-1.4-0.8c-0.7-0.5-1.4-1.2-2.6-1.2
				s-2,0.7-2.6,1.2s-1.1,0.8-1.4,0.8s-0.8-0.3-1.4-0.8c-0.6-0.5-1.4-1.2-2.6-1.2s-2,0.7-2.6,1.2s-1.1,0.8-1.4,0.8s-1.3-0.4-2-0.8
				c-0.8-0.5-1.3-0.9-1.3-0.9c-0.3-0.3-0.5-0.3-0.7-0.3c-0.6,0-1,0.5-1,1c0,0.3,0.1,0.6,0.4,0.8c0,0,0.7,0.5,1.5,1.1
				c0.9,0.5,1.9,1.1,3.1,1.1s2-0.7,2.6-1.2s1.1-0.8,1.4-0.8s0.7,0.3,1.4,0.8c0.6,0.5,1.4,1.2,2.6,1.2s2-0.7,2.6-1.2s1.1-0.8,1.4-0.8
				s0.8,0.3,1.4,0.8s1.4,1.2,2.6,1.2s2-0.7,2.6-1.2s1.1-0.8,1.4-0.8s0.8,0.3,1.4,0.8s1.4,1.2,2.6,1.2s2-0.7,2.6-1.2s1.1-0.8,1.4-0.8
				s1.3,0.4,2,0.8c0.8,0.5,1.3,0.9,1.3,0.9c0.2,0.2,0.4,0.3,0.6,0.3c0.3,0,0.6-0.1,0.8-0.4c0.4-0.4,0.3-1.1-0.1-1.4
				c0,0-0.7-0.5-1.5-1.1C35.2,1011,34.2,1010.4,33,1010.4L33,1010.4z"/>
		</g>
	</g>
	<g>
		<path class="st0" d="M29,1020.3c-1.1,0-1.9-0.6-2.5-1.1c-0.7-0.6-1.2-0.9-1.5-0.9s-0.8,0.3-1.5,0.8s-1.4,1.2-2.5,1.2
			s-1.9-0.6-2.5-1.1c-0.7-0.6-1.2-0.9-1.5-0.9s-0.8,0.3-1.5,0.8c-0.7,0.5-1.4,1.2-2.5,1.2s-1.9-0.6-2.5-1.1l-0.2-0.1
			c-0.7-0.5-1-0.7-1.4-0.7s-0.8,0.3-1.5,0.8s-1.4,1.2-2.5,1.2s-2-0.5-2.9-1l-0.2-0.1c-0.8-0.6-1.5-1.1-1.5-1.1
			c-0.2-0.2-0.3-0.4-0.3-0.7c0-0.4,0.3-0.9,0.9-0.9c0.2,0,0.3,0,0.6,0.3c0,0,0.6,0.5,1.3,0.9s1.7,0.8,2.1,0.8c0.3,0,0.8-0.3,1.5-0.8
			s1.4-1.2,2.5-1.2s1.9,0.6,2.5,1.1c0.7,0.6,1.2,0.9,1.5,0.9s0.8-0.3,1.5-0.8s1.4-1.2,2.5-1.2c1,0,1.6,0.5,2.2,0.9
			c0.1,0.1,0.5,0.3,0.5,0.3c0.7,0.5,1,0.7,1.4,0.7c0.3,0,0.8-0.3,1.5-0.8s1.4-1.2,2.5-1.2s1.9,0.6,2.5,1.1l0.2,0.1
			c0.7,0.5,1,0.7,1.3,0.7s0.8-0.3,1.5-0.8s1.4-1.2,2.5-1.2s2,0.5,2.9,1l0.2,0.1c0.8,0.6,1.5,1.1,1.5,1.1c0.2,0.1,0.3,0.4,0.3,0.6
			c0,0.2-0.1,0.5-0.2,0.6c-0.2,0.2-0.4,0.3-0.7,0.3c-0.2,0-0.4-0.1-0.6-0.2c0,0-0.5-0.4-1.3-0.9c-0.7-0.4-1.7-0.8-2.1-0.8
			c-0.3,0-0.8,0.3-1.5,0.8C30.9,1019.7,30.1,1020.3,29,1020.3z"/>
		<path class="st1" d="M33,1016.7c1.1,0,2,0.5,2.8,1l0.1,0.1c0.8,0.6,1.5,1.1,1.5,1.1c0.1,0.1,0.2,0.3,0.3,0.5c0,0.1,0,0.3-0.2,0.5
			c-0.1,0.2-0.3,0.3-0.6,0.3c-0.2,0-0.3-0.1-0.5-0.2c0,0-0.5-0.4-1.3-0.9c-0.7-0.4-1.7-0.8-2.1-0.8c-0.4,0-0.9,0.3-1.6,0.9h-0.1
			c-0.6,0.5-1.3,1.1-2.4,1.1s-1.8-0.6-2.4-1.1h-0.1c-0.7-0.6-1.2-0.9-1.6-0.9s-0.9,0.3-1.6,0.9h-0.1c-0.6,0.5-1.3,1.1-2.4,1.1
			s-1.8-0.6-2.4-1.1h-0.1c-0.7-0.6-1.2-0.9-1.6-0.9s-0.9,0.3-1.6,0.9h-0.1c-0.6,0.5-1.3,1.1-2.4,1.1s-1.8-0.6-2.4-1.1l-0.1-0.1
			l-0.1-0.1c-0.7-0.5-1.1-0.8-1.4-0.8c-0.4,0-0.9,0.3-1.6,0.9H6.8c-0.6,0.5-1.3,1.1-2.4,1.1s-2-0.5-2.8-1l-0.1-0.1
			c-0.8-0.6-1.5-1.1-1.5-1.1c-0.2-0.1-0.3-0.3-0.3-0.6c0-0.4,0.3-0.8,0.8-0.8c0.2,0,0.3,0,0.5,0.2c0,0,0.6,0.5,1.3,0.9
			s1.7,0.8,2.1,0.8s0.9-0.3,1.6-0.9h0.1c0.6-0.5,1.3-1.1,2.4-1.1s1.8,0.6,2.4,1.1H11c0.7,0.6,1.2,0.9,1.6,0.9s0.9-0.3,1.6-0.9h0.1
			c0.6-0.5,1.3-1.1,2.4-1.1c0.9,0,1.5,0.5,2.1,0.9c0.1,0.1,0.2,0.2,0.3,0.2l0.1,0.1c0.7,0.5,1.1,0.8,1.4,0.8c0.4,0,0.9-0.3,1.6-0.9
			h0.1c0.6-0.5,1.3-1.1,2.4-1.1s1.8,0.6,2.4,1.1l0.1,0.1l0.1,0.1c0.7,0.5,1.1,0.8,1.4,0.8c0.4,0,0.9-0.3,1.6-0.9h0.1
			C31.2,1017.3,31.9,1016.7,33,1016.7 M33,1016.4c-1.2,0-2,0.7-2.6,1.2s-1.1,0.8-1.4,0.8s-0.7-0.3-1.4-0.8c-0.6-0.5-1.4-1.2-2.6-1.2
			s-2,0.7-2.6,1.2s-1.1,0.8-1.4,0.8s-0.7-0.3-1.4-0.8c-0.7-0.5-1.4-1.2-2.6-1.2s-2,0.7-2.6,1.2s-1.1,0.8-1.4,0.8s-0.8-0.3-1.4-0.8
			c-0.6-0.5-1.4-1.2-2.6-1.2s-2,0.7-2.6,1.2s-1.1,0.8-1.4,0.8s-1.3-0.4-2-0.8s-1.3-0.9-1.3-0.9c-0.3-0.3-0.5-0.3-0.7-0.3
			c-0.6,0-1,0.5-1,1c0,0.3,0.1,0.6,0.4,0.8c0,0,0.7,0.5,1.5,1.1c0.9,0.5,1.9,1.1,3.1,1.1s2-0.7,2.6-1.2s1.1-0.8,1.4-0.8
			s0.7,0.3,1.4,0.8c0.6,0.5,1.4,1.2,2.6,1.2s2-0.7,2.6-1.2s1.1-0.8,1.4-0.8s0.8,0.3,1.4,0.8s1.4,1.2,2.6,1.2s2-0.7,2.6-1.2
			s1.1-0.8,1.4-0.8s0.8,0.3,1.4,0.8s1.4,1.2,2.6,1.2s2-0.7,2.6-1.2s1.1-0.8,1.4-0.8s1.3,0.4,2,0.8c0.8,0.5,1.3,0.9,1.3,0.9
			c0.2,0.2,0.4,0.3,0.6,0.3c0.3,0,0.6-0.1,0.8-0.4c0.4-0.4,0.3-1.1-0.1-1.4c0,0-0.7-0.5-1.5-1.1C35.2,1017,34.2,1016.4,33,1016.4
			L33,1016.4z"/>
	</g>
	<g>
		<path class="st0" d="M29,1026.3c-1.1,0-1.9-0.6-2.5-1.1c-0.7-0.6-1.2-0.9-1.5-0.9s-0.8,0.3-1.5,0.8s-1.4,1.2-2.5,1.2
			s-1.9-0.6-2.5-1.1c-0.7-0.6-1.2-0.9-1.5-0.9s-0.8,0.3-1.5,0.8c-0.7,0.5-1.4,1.2-2.5,1.2s-1.9-0.6-2.5-1.1l-0.2-0.1
			c-0.7-0.5-1-0.7-1.4-0.7c-0.3,0-0.8,0.3-1.5,0.8s-1.4,1.2-2.5,1.2s-2-0.5-2.9-1l-0.2-0.1c-0.8-0.6-1.5-1.1-1.5-1.1
			c-0.2-0.2-0.3-0.4-0.3-0.7c0-0.4,0.3-0.9,0.9-0.9c0.2,0,0.3,0,0.6,0.3c0,0,0.6,0.5,1.3,0.9s1.7,0.8,2.1,0.8c0.3,0,0.8-0.3,1.5-0.8
			c0.7-0.5,1.4-1.2,2.5-1.2s1.9,0.6,2.5,1.1c0.7,0.6,1.2,0.9,1.5,0.9s0.8-0.3,1.5-0.8c0.7-0.5,1.4-1.2,2.5-1.2s1.9,0.6,2.5,1.1
			l0.2,0.1c0.7,0.5,1,0.7,1.4,0.7c0.3,0,0.8-0.3,1.5-0.8c0.7-0.5,1.4-1.2,2.5-1.2s1.9,0.6,2.5,1.1l0.2,0.1c0.7,0.5,1,0.7,1.4,0.7
			c0.3,0,0.8-0.3,1.5-0.8c0.7-0.5,1.4-1.2,2.5-1.2s2,0.5,2.9,1l0.2,0.1c0.8,0.6,1.5,1.1,1.5,1.1c0.2,0.1,0.3,0.3,0.3,0.6
			c0,0.2-0.1,0.5-0.2,0.6c-0.2,0.2-0.4,0.3-0.7,0.3c-0.2,0-0.4-0.1-0.6-0.2c0,0-0.5-0.4-1.3-0.9c-0.7-0.4-1.7-0.8-2.1-0.8
			c-0.3,0-0.8,0.3-1.5,0.8C30.9,1025.7,30.1,1026.3,29,1026.3z"/>
		<path class="st1" d="M1,1022.7c0.2,0,0.3,0,0.5,0.2c0,0,0.6,0.5,1.3,0.9s1.7,0.8,2.1,0.8c0.4,0,0.9-0.3,1.6-0.9h0.1
			c0.6-0.5,1.3-1.1,2.4-1.1s1.8,0.6,2.4,1.1h0.1c0.7,0.6,1.2,0.9,1.6,0.9s0.9-0.3,1.6-0.9h0.1c0.6-0.5,1.3-1.1,2.4-1.1
			s1.8,0.6,2.4,1.1l0.1,0.1l0.1,0.1c0.7,0.5,1.1,0.8,1.4,0.8c0.4,0,0.9-0.3,1.6-0.9h0.1c0.6-0.5,1.3-1.1,2.4-1.1s1.8,0.6,2.4,1.1
			l0.1,0.1l0.1,0.1c0.7,0.5,1.1,0.8,1.4,0.8c0.4,0,0.9-0.3,1.6-0.9H31c0.6-0.5,1.3-1.1,2.4-1.1s2,0.5,2.8,1l0.1,0.1
			c0.8,0.6,1.5,1.1,1.5,1.1c0.1,0.1,0.2,0.3,0.3,0.5c0,0.1,0,0.3-0.2,0.5c-0.1,0.2-0.3,0.3-0.6,0.3c-0.2,0-0.3-0.1-0.5-0.2
			c0,0-0.5-0.4-1.3-0.9c-0.7-0.4-1.7-0.8-2.1-0.8c-0.4,0-0.9,0.3-1.6,0.9h-0.1c-0.6,0.5-1.3,1.1-2.4,1.1s-1.8-0.6-2.4-1.1h-0.1
			c-0.7-0.6-1.2-0.9-1.6-0.9s-0.9,0.3-1.6,0.9h-0.1c-0.6,0.5-1.3,1.1-2.4,1.1s-1.8-0.6-2.4-1.1h-0.1c-0.7-0.6-1.2-0.9-1.6-0.9
			s-0.9,0.3-1.6,0.9h-0.1c-0.6,0.5-1.3,1.1-2.4,1.1s-1.8-0.6-2.4-1.1l-0.1-0.1l-0.1-0.1c-0.7-0.5-1.1-0.8-1.4-0.8
			c-0.4,0-0.9,0.3-1.6,0.9H7.2c-0.6,0.5-1.3,1.1-2.4,1.1s-2-0.5-2.8-1l-0.1-0.1c-0.8-0.6-1.5-1.1-1.5-1.1c-0.2-0.1-0.3-0.3-0.3-0.6
			C0.3,1023,0.5,1022.7,1,1022.7 M1,1022.4c-0.6,0-1,0.5-1,1c0,0.3,0.1,0.6,0.4,0.8c0,0,0.7,0.5,1.5,1.1c0.9,0.5,1.9,1.1,3.1,1.1
			s2-0.7,2.6-1.2s1.1-0.8,1.4-0.8s0.7,0.3,1.4,0.8c0.6,0.5,1.4,1.2,2.6,1.2s2-0.7,2.6-1.2s1.1-0.8,1.4-0.8s0.8,0.3,1.4,0.8
			s1.4,1.2,2.6,1.2s2-0.7,2.6-1.2s1.1-0.8,1.4-0.8s0.8,0.3,1.4,0.8s1.4,1.2,2.6,1.2s2-0.7,2.6-1.2s1.1-0.8,1.4-0.8s1.3,0.4,2,0.8
			c0.8,0.5,1.3,0.9,1.3,0.9c0.2,0.2,0.4,0.3,0.6,0.3c0.3,0,0.6-0.1,0.8-0.4c0.4-0.4,0.3-1.1-0.1-1.4c0,0-0.7-0.5-1.5-1.1
			c-0.9-0.5-1.9-1.1-3.1-1.1c-1.2,0-2,0.7-2.6,1.2c-0.6,0.5-1.1,0.8-1.4,0.8s-0.7-0.3-1.4-0.8c-0.6-0.5-1.4-1.2-2.6-1.2
			s-2,0.7-2.6,1.2c-0.6,0.5-1.1,0.8-1.4,0.8s-0.7-0.3-1.4-0.8c-0.6-0.5-1.4-1.2-2.6-1.2s-2,0.7-2.6,1.2c-0.6,0.5-1.1,0.8-1.4,0.8
			s-0.8-0.3-1.4-0.8c-0.6-0.5-1.4-1.2-2.6-1.2s-2,0.7-2.6,1.2c-0.6,0.5-1.1,0.8-1.4,0.8s-1.3-0.4-2-0.8s-1.3-0.9-1.3-0.9
			C1.4,1022.4,1.2,1022.4,1,1022.4L1,1022.4z"/>
	</g>
	<g>
		<path class="st0" d="M29,1032.3c-1.1,0-1.9-0.6-2.5-1.1c-0.7-0.6-1.2-0.9-1.5-0.9s-0.8,0.3-1.5,0.8s-1.4,1.2-2.5,1.2
			s-1.9-0.6-2.5-1.1c-0.7-0.6-1.2-0.9-1.5-0.9s-0.8,0.3-1.5,0.8c-0.7,0.5-1.4,1.2-2.5,1.2s-1.9-0.6-2.5-1.1l-0.2-0.1
			c-0.7-0.5-1-0.7-1.4-0.7c-0.3,0-0.8,0.3-1.5,0.8s-1.4,1.2-2.5,1.2s-2-0.5-2.9-1l-0.2-0.1c-0.8-0.6-1.5-1.1-1.5-1.1
			c-0.2-0.2-0.3-0.4-0.3-0.7c0-0.4,0.3-0.9,0.9-0.9c0.2,0,0.3,0,0.6,0.3c0,0,0.6,0.5,1.3,0.9s1.7,0.8,2.1,0.8c0.3,0,0.8-0.3,1.5-0.8
			s1.4-1.2,2.5-1.2s1.9,0.6,2.5,1.1c0.7,0.6,1.2,0.9,1.5,0.9s0.8-0.3,1.5-0.8s1.4-1.2,2.5-1.2c1,0,1.6,0.5,2.2,0.9
			c0.1,0.1,0.5,0.3,0.5,0.3c0.7,0.5,1,0.7,1.4,0.7c0.3,0,0.8-0.3,1.5-0.8s1.4-1.2,2.5-1.2s1.9,0.6,2.5,1.1l0.2,0.1
			c0.7,0.5,1,0.7,1.4,0.7c0.3,0,0.8-0.3,1.5-0.8s1.4-1.2,2.5-1.2s2,0.5,2.9,1l0.2,0.1c0.8,0.6,1.5,1.1,1.5,1.1
			c0.2,0.1,0.3,0.3,0.3,0.6c0,0.2-0.1,0.5-0.2,0.6c-0.2,0.2-0.4,0.3-0.7,0.3c-0.2,0-0.4-0.1-0.6-0.2c0,0-0.5-0.4-1.3-0.9
			c-0.7-0.4-1.7-0.8-2.1-0.8c-0.3,0-0.8,0.3-1.5,0.8C30.9,1031.7,30.1,1032.3,29,1032.3z"/>
		<path class="st1" d="M1,1028.7c0.2,0,0.3,0,0.5,0.2c0,0,0.6,0.5,1.3,0.9s1.7,0.8,2.1,0.8c0.4,0,0.9-0.3,1.6-0.9h0.1
			c0.6-0.5,1.3-1.1,2.4-1.1s1.8,0.6,2.4,1.1h0.1c0.7,0.6,1.2,0.9,1.6,0.9s0.9-0.3,1.6-0.9h0.1c0.6-0.5,1.3-1.1,2.4-1.1
			c0.9,0,1.5,0.5,2.1,0.9c0.1,0.1,0.2,0.2,0.3,0.2l0.1,0.1c0.7,0.5,1.1,0.8,1.4,0.8c0.4,0,0.9-0.3,1.6-0.9h0.1
			c0.6-0.5,1.3-1.1,2.4-1.1s1.8,0.6,2.4,1.1l0.1,0.1l0.1,0.1c0.7,0.5,1.1,0.8,1.4,0.8c0.4,0,0.9-0.3,1.6-0.9h0.1
			c0.6-0.5,1.3-1.1,2.4-1.1c1.1,0,2,0.5,2.8,1l0.1,0.1c0.8,0.6,1.5,1.1,1.5,1.1c0.1,0.1,0.2,0.3,0.3,0.5c0,0.1,0,0.3-0.2,0.5
			c-0.1,0.2-0.3,0.3-0.6,0.3c-0.2,0-0.3-0.1-0.5-0.2c0,0-0.5-0.4-1.3-0.9c-0.7-0.4-1.7-0.8-2.1-0.8c-0.4,0-0.9,0.3-1.6,0.9h-0.1
			c-0.6,0.5-1.3,1.1-2.4,1.1s-1.8-0.6-2.4-1.1h-0.1c-0.7-0.6-1.2-0.9-1.6-0.9s-0.9,0.3-1.6,0.9h-0.1c-0.6,0.5-1.3,1.1-2.4,1.1
			s-1.8-0.6-2.4-1.1h-0.1c-0.7-0.6-1.2-0.9-1.6-0.9s-0.9,0.3-1.6,0.9h-0.1c-0.6,0.5-1.3,1.1-2.4,1.1s-1.8-0.6-2.4-1.1l-0.1-0.1
			l-0.1-0.1c-0.7-0.5-1.1-0.8-1.4-0.8c-0.4,0-0.9,0.3-1.6,0.9H7.1c-0.6,0.5-1.3,1.1-2.4,1.1s-2-0.5-2.8-1l-0.1-0.1
			c-0.8-0.6-1.5-1.1-1.5-1.1c-0.2-0.1-0.3-0.3-0.3-0.6C0.3,1029,0.5,1028.7,1,1028.7 M1,1028.4c-0.6,0-1,0.5-1,1
			c0,0.3,0.1,0.6,0.4,0.8c0,0,0.7,0.5,1.5,1.1c0.9,0.5,1.9,1.1,3.1,1.1s2-0.7,2.6-1.2s1.1-0.8,1.4-0.8s0.7,0.3,1.4,0.8
			c0.6,0.5,1.4,1.2,2.6,1.2s2-0.7,2.6-1.2s1.1-0.8,1.4-0.8s0.8,0.3,1.4,0.8s1.4,1.2,2.6,1.2s2-0.7,2.6-1.2s1.1-0.8,1.4-0.8
			s0.8,0.3,1.4,0.8s1.4,1.2,2.6,1.2s2-0.7,2.6-1.2s1.1-0.8,1.4-0.8s1.3,0.4,2,0.8c0.8,0.5,1.3,0.9,1.3,0.9c0.2,0.2,0.4,0.3,0.6,0.3
			c0.3,0,0.6-0.1,0.8-0.4c0.4-0.4,0.3-1.1-0.1-1.4c0,0-0.7-0.5-1.5-1.1c-0.9-0.5-1.9-1.1-3.1-1.1c-1.2,0-2,0.7-2.6,1.2
			s-1.1,0.8-1.4,0.8s-0.7-0.3-1.4-0.8c-0.6-0.5-1.4-1.2-2.6-1.2s-2,0.7-2.6,1.2s-1.1,0.8-1.4,0.8s-0.7-0.3-1.4-0.8
			c-0.7-0.5-1.4-1.2-2.6-1.2s-2,0.7-2.6,1.2s-1.1,0.8-1.4,0.8s-0.8-0.3-1.4-0.8c-0.6-0.5-1.4-1.2-2.6-1.2s-2,0.7-2.6,1.2
			s-1.1,0.8-1.4,0.8s-1.3-0.4-2-0.8s-1.3-0.9-1.3-0.9C1.4,1028.4,1.2,1028.4,1,1028.4L1,1028.4z"/>
	</g>
</g>
</svg>
