<?xml version="1.0" encoding="utf-8"?>
<!-- Generator: Adobe Illustrator 21.1.0, SVG Export Plug-In . SVG Version: 6.00 Build 0)  -->
<svg version="1.1" id="Layer_1" xmlns="http://www.w3.org/2000/svg" xmlns:xlink="http://www.w3.org/1999/xlink" x="0px" y="0px"
	 width="57px" height="51.7px" viewBox="0 0 57 51.7" style="enable-background:new 0 0 57 51.7;" xml:space="preserve">
<style type="text/css">
	.st0{fill:#CBE7EF;}
</style>
<path class="st0" d="M21.4,51.7L21.4,51.7l-10.7,0c-2,0-3.6-1.6-3.6-3.6v0V30.7c0-1.1,0.5-2.1,1.3-2.8l17.8-14.6
	c0.7-0.5,1.5-0.8,2.3-0.8l0,0c0,0,0,0,0,0c0.8,0,1.6,0.3,2.3,0.8l17.8,14.6c0.8,0.7,1.3,1.7,1.3,2.8v17.5h0v0c0,2-1.6,3.6-3.6,3.6
	H35.7v0 M56.6,26.1c-0.4,0.4-0.8,0.6-1.3,0.6c-0.4,0-0.8-0.1-1.2-0.4L28.5,4.2L3,26.3c-0.7,0.7-1.9,0.6-2.5-0.2
	c-0.6-0.7-0.6-1.9,0.2-2.5l0,0c0,0,0,0,0,0l10.1-8.7V5.4c0-1,0.4-1.9,1-2.5c0.6-0.6,1.5-1,2.5-1c2,0,3.6,1.6,3.6,3.6v3.3l9.5-8.3
	c0.7-0.6,1.7-0.6,2.3,0l26.7,23.2c0.6,0.6,0.8,1.5,0.4,2.2c0,0,0,0,0,0.1C56.7,26,56.7,26.1,56.6,26.1
	C56.6,26.1,56.6,26.1,56.6,26.1C56.6,26.1,56.6,26.1,56.6,26.1z"/>
</svg>
