<?xml version="1.0" encoding="utf-8"?>
<!-- Generator: Adobe Illustrator 21.0.2, SVG Export Plug-In . SVG Version: 6.00 Build 0)  -->
<svg version="1.1"
	 id="Layer_1" xmlns:cc="http://creativecommons.org/ns#" xmlns:dc="http://purl.org/dc/elements/1.1/" xmlns:inkscape="http://www.inkscape.org/namespaces/inkscape" xmlns:rdf="http://www.w3.org/1999/02/22-rdf-syntax-ns#" xmlns:sodipodi="http://sodipodi.sourceforge.net/DTD/sodipodi-0.dtd" xmlns:svg="http://www.w3.org/2000/svg"
	 xmlns="http://www.w3.org/2000/svg" xmlns:xlink="http://www.w3.org/1999/xlink" x="0px" y="0px" viewBox="0 0 48 45"
	 style="enable-background:new 0 0 48 45;" xml:space="preserve">
<style type="text/css">
	.st0{fill:#FFCC59;}
	.st1{fill:#FFFFFF;}
</style>
<g transform="translate(0,-1004.3622)">
	<path class="st0" d="M32,1036.4c-0.3,0-0.6,0.1-0.8,0.4l-5,6c-0.4,0.4-0.3,1.1,0.1,1.4c0.2,0.2,0.5,0.3,0.8,0.2l3.3-0.6l-3.3,3.9
		c-0.4,0.4-0.3,1,0.1,1.4s1,0.3,1.4-0.1l0,0l5-6c0.4-0.4,0.3-1.1-0.1-1.4c-0.2-0.2-0.5-0.3-0.8-0.2l-3.3,0.6l3.3-3.9
		c0.4-0.4,0.3-1.1-0.1-1.4C32.5,1036.4,32.2,1036.4,32,1036.4z"/>
	<path class="st1" d="M41,1040.4c-0.6,0-1,0.5-1,1l0,0v7c0,0.6,0.4,1,1,1s1-0.4,1-1l0,0v-7C42,1040.8,41.6,1040.4,41,1040.4
		L41,1040.4z"/>
	<path class="st1" d="M38,1042.4c-0.6,0-1,0.5-1,1c0,0.4,0.2,0.7,0.6,0.9l6,3c0.5,0.3,1.1,0.1,1.4-0.4s0.1-1.1-0.4-1.4
		c0,0,0,0-0.1,0l-6-3C38.3,1042.4,38.1,1042.4,38,1042.4z"/>
	<path class="st1" d="M44,1042.4c-0.2,0-0.3,0-0.5,0.1l-6,3c-0.5,0.2-0.7,0.8-0.5,1.3s0.8,0.7,1.3,0.5c0,0,0,0,0.1,0l6-3
		c0.5-0.2,0.7-0.8,0.5-1.3C44.7,1042.6,44.4,1042.4,44,1042.4z"/>
	<path class="st1" d="M27.6,1005c3.8,1.4,6.5,4.6,7.7,8.4c0.4,0,0.7,0,1.1-0.1l0,0c1.1,0,2.2,0.2,3.3,0.6c5.7,2,9.1,7.8,8.2,13.8
		c-0.9,5.8-5.7,10.1-11.5,10.5c-5.1,0.2-10.4,0.1-14.8,0.1c-4-0.2-7.5-2.7-8.9-6.3c-0.2-0.6-0.4-1.1-0.5-1.7H9.6c0,0,0,0-0.1,0
		c-4-0.2-7.4-2.8-8.9-6.6c-1.4-3.8-0.5-8,2.3-10.9c2.7-2.7,6.6-3,10-1.9c2.4-4,6.6-6.7,11-6.6C25.2,1004.4,26.6,1004.6,27.6,1005
		L27.6,1005z M24.3,1006.3L24.3,1006.3c-3.9-0.1-7.8,2.3-9.9,6.1c0,0.1-0.1,0.2-0.2,0.2l-0.2,0.2c-0.3,0.3-0.7,0.4-1.1,0.2
		c-3-1.2-6.4-1-8.6,1.2c-2.3,2.3-3,5.7-1.9,8.8c1.1,3,3.9,5.1,7.1,5.3H12l0,0c0-0.3,0-0.6,0.1-0.9l0,0c0.1-0.9,0.4-1.8,0.7-2.7
		c0.5-1.3,1.3-2.2,2.2-3.2c2.7-2.6,6.6-2.9,10-1.8c1.5-2.4,3.7-4.3,6.2-5.3c0.7-0.3,1.4-0.5,2.1-0.7c-1-3.1-3.2-5.7-6.3-6.8
		C26.1,1006.5,25.2,1006.4,24.3,1006.3L24.3,1006.3z M36.3,1015.3L36.3,1015.3c-0.5,0-1,0-1.6,0.1c0,0,0,0-0.1,0
		c-0.8,0.1-1.6,0.3-2.4,0.6c-2.5,1-4.6,2.8-5.9,5.2c-0.1,0.1-0.1,0.2-0.2,0.2l-0.1,0.1l0,0c0,0,0,0-0.1,0c0,0,0,0-0.1,0l0,0l0,0
		c0,0,0,0-0.1,0c0,0,0,0-0.1,0l0,0l0,0l0,0c0,0,0,0-0.1,0l0,0c-0.2,0-0.4,0-0.6,0c-2.8-1.1-6-1-8.2,0.8c-0.1,0.1-0.3,0.2-0.4,0.4
		l0,0c-1.6,1.6-2.3,3.6-2.3,5.7c0,0.2,0,0.3,0,0.5c0.1,0.7,0.2,1.4,0.5,2.1c1.1,2.9,3.9,4.9,7.1,5h14.2h0.1c5-0.2,9.2-3.9,10-8.9
		s-2.1-9.9-6.9-11.6C38.1,1015.5,37.2,1015.3,36.3,1015.3L36.3,1015.3z"/>
	<path class="st1" d="M19,1040.4c-0.6,0-1,0.5-1,1l0,0v7c0,0.6,0.4,1,1,1s1-0.4,1-1l0,0v-7C20,1040.8,19.6,1040.4,19,1040.4
		L19,1040.4z"/>
	<path class="st1" d="M16,1042.4c-0.6,0-1,0.5-1,1c0,0.4,0.2,0.7,0.6,0.9l6,3c0.5,0.3,1.1,0.1,1.4-0.4s0.1-1.1-0.4-1.4
		c0,0,0,0-0.1,0l-6-3C16.3,1042.4,16.1,1042.4,16,1042.4z"/>
	<path class="st1" d="M22,1042.4c-0.2,0-0.3,0-0.5,0.1l-6,3c-0.5,0.2-0.7,0.8-0.5,1.3s0.8,0.7,1.3,0.5c0,0,0,0,0.1,0l6-3
		c0.5-0.2,0.7-0.8,0.5-1.3C22.7,1042.6,22.4,1042.4,22,1042.4z"/>
</g>
</svg>
